<svg version="1.2" xmlns="http://www.w3.org/2000/svg" viewBox="0 0 66 10" width="66" height="10"><style>.a{fill:#ffa650}.b{fill:#dbdbdb}</style><path fill-rule="evenodd" class="a" d="m6.1 1.8q0.2 0.1 0.4 0.2 0.1 0.2 0.3 0.3 0.2 0.1 0.3 0.3 0.2 0.2 0.3 0.3 0.1 0.2 0.2 0.4 0.1 0.2 0.2 0.4 0 0.3 0 0.5 0.1 0.2 0.1 0.4 0 0.2-0.1 0.5 0 0.2 0 0.4-0.1 0.2-0.2 0.4-0.1 0.2-0.2 0.4-0.1 0.2-0.3 0.3-0.1 0.2-0.3 0.3-0.2 0.2-0.3 0.3-0.2 0.1-0.4 0.2-0.3 0.1-0.5 0.2-0.3 0-0.5 0.1-0.3 0-0.5 0.1-0.3 0-0.5 0h-1.3v2h-2.8v-8.4h4q0.3 0 0.5 0.1 0.3 0 0.6 0 0.2 0.1 0.5 0.2 0.2 0 0.5 0.1zm-1.4 3.5q0.1 0 0.2-0.1 0-0.1 0-0.2 0.1-0.1 0.1-0.2 0-0.1 0-0.2 0-0.1 0-0.2 0-0.1-0.1-0.2 0-0.1-0.1-0.2 0 0-0.1-0.1-0.1-0.1-0.2-0.1-0.1-0.1-0.2-0.1-0.1-0.1-0.2-0.1-0.1 0-0.3 0h-1v2h1q0.2 0 0.3 0 0.1 0 0.2 0 0.1-0.1 0.2-0.1 0.1-0.1 0.2-0.2z"/><path class="a" d="m9 2.4q-0.1-0.1-0.2-0.2-0.1-0.1-0.1-0.3-0.1-0.1-0.1-0.2-0.1-0.2-0.1-0.3 0-0.2 0.1-0.3 0-0.1 0.1-0.3 0-0.1 0.1-0.2 0.1-0.1 0.2-0.2 0.1-0.1 0.3-0.2 0.1-0.1 0.3-0.1 0.1-0.1 0.3-0.1 0.1 0 0.3 0 0.1 0 0.3 0 0.2 0 0.3 0.1 0.2 0 0.3 0.1 0.2 0.1 0.3 0.2 0.1 0.1 0.2 0.2 0.1 0.1 0.1 0.2 0.1 0.1 0.1 0.3 0 0.1 0 0.3 0 0.1 0 0.2 0 0.2-0.1 0.3 0 0.1-0.1 0.3-0.1 0.1-0.2 0.2-0.1 0.1-0.3 0.2-0.1 0-0.3 0.1-0.1 0-0.3 0.1-0.1 0-0.3 0-0.2 0-0.3 0-0.2-0.1-0.3-0.1-0.2-0.1-0.3-0.1-0.2-0.1-0.3-0.2zm-0.2 0.9h2.7v6.5h-2.7z"/><path class="a" d="m18.8 7.9v2h-6.3v-1.6l2.7-3h-2.6v-2h6v1.5l-2.7 3z"/><path class="a" d="m25.6 7.9v2h-6.3v-1.6l2.7-3h-2.6v-2h6v1.5l-2.7 3z"/><path fill-rule="evenodd" class="a" d="m32 3.9q0.2 0.3 0.4 0.5 0.2 0.3 0.3 0.6 0.1 0.3 0.2 0.7 0 0.3 0 0.6v3.5h-2.5v-0.8q-0.1 0.3-0.3 0.5-0.2 0.2-0.5 0.3-0.2 0.1-0.5 0.2-0.3 0-0.6 0-0.1 0-0.3 0-0.2 0-0.3-0.1-0.2 0-0.4 0-0.1-0.1-0.3-0.2-0.2-0.1-0.5-0.3-0.2-0.2-0.3-0.4-0.2-0.2-0.2-0.5-0.1-0.3-0.1-0.6 0-0.2 0-0.4 0.1-0.2 0.2-0.4 0.1-0.2 0.2-0.4 0.2-0.1 0.3-0.3 0.3-0.1 0.6-0.2 0.3-0.1 0.5-0.1 0.3-0.1 0.6-0.1 0.3 0 0.6 0h1.1q-0.1-0.8-1.3-0.8-0.1 0-0.2 0-0.1 0-0.2 0.1-0.1 0-0.2 0-0.1 0-0.3 0.1-0.1 0-0.2 0-0.1 0.1-0.2 0.1-0.1 0.1-0.1 0.1-0.1 0.1-0.2 0.1l-0.9-1.7q0.2-0.1 0.3-0.2 0.2-0.1 0.4-0.2 0.1 0 0.3-0.1 0.2 0 0.4-0.1 0.2 0 0.4-0.1 0.2 0 0.4 0 0.2-0.1 0.4-0.1 0.2 0 0.4 0 0.3 0 0.7 0 0.3 0 0.6 0.1 0.4 0.1 0.7 0.3 0.3 0.1 0.6 0.3zm-2.1 4.3q0-0.1 0.1-0.1 0-0.1 0.1-0.1 0-0.1 0.1-0.2 0 0 0-0.1v-0.4h-0.7q-0.8 0-0.8 0.5 0 0.1 0 0.1 0 0.1 0.1 0.1 0 0.1 0 0.1 0 0.1 0.1 0.1 0 0 0.1 0.1 0 0 0.1 0 0.1 0 0.1 0 0.1 0 0.1 0 0.1 0 0.2 0 0.1 0 0.1 0 0.1 0 0.2-0.1 0 0 0.1 0z"/><path class="b" d="m36 3.6h-2.5v-2.2h7.8v2.2h-2.5v6.2h-2.8z"/><path class="b" d="m42 2.4q-0.1-0.1-0.2-0.2-0.1-0.1-0.1-0.3-0.1-0.1-0.1-0.2-0.1-0.2-0.1-0.3 0-0.2 0.1-0.3 0-0.2 0.1-0.3 0-0.1 0.1-0.2 0.1-0.1 0.2-0.2 0.1-0.1 0.3-0.2 0.1-0.1 0.3-0.1 0.1-0.1 0.3-0.1 0.1 0 0.3 0 0.1 0 0.3 0 0.2 0 0.3 0.1 0.2 0 0.3 0.1 0.1 0.1 0.3 0.2 0.1 0.1 0.2 0.2 0.1 0.1 0.1 0.2 0.1 0.1 0.1 0.3 0 0.1 0 0.3 0 0.1 0 0.2 0 0.2-0.1 0.3-0.1 0.1-0.1 0.3-0.1 0.1-0.2 0.2-0.2 0.1-0.3 0.2-0.1 0-0.3 0.1-0.1 0-0.3 0.1-0.2 0-0.3 0-0.2 0-0.3 0-0.2-0.1-0.3-0.1-0.2-0.1-0.3-0.1-0.2-0.1-0.3-0.2zm-0.2 0.9h2.7v6.5h-2.7z"/><path class="b" d="m56.3 3.9q0.2 0.2 0.4 0.5 0.1 0.3 0.2 0.5 0.1 0.3 0.1 0.6 0 0.3 0 0.6v3.7h-2.7v-3.2q0-1.2-0.7-1.2-0.1 0-0.2 0.1-0.1 0-0.2 0 0 0.1-0.1 0.1-0.1 0.1-0.1 0.1-0.1 0.1-0.1 0.2-0.1 0.2-0.1 0.3-0.1 0.1-0.1 0.2 0 0.1 0 0.2v3.2h-2.7v-3.2q0-1.2-0.7-1.2-0.1 0-0.2 0.1-0.1 0-0.2 0-0.1 0.1-0.1 0.1-0.1 0.1-0.2 0.1 0 0.1-0.1 0.2 0 0.2 0 0.3-0.1 0.1-0.1 0.2 0 0.1 0 0.2v3.2h-2.7v-6.5h2.6v0.6q0.2-0.2 0.4-0.3 0.2-0.2 0.5-0.3 0.2-0.1 0.5-0.1 0.2 0 0.5 0 0.1 0 0.3 0 0.1 0 0.3 0 0.1 0.1 0.3 0.1 0.1 0.1 0.3 0.1 0.1 0.1 0.2 0.2 0.1 0 0.2 0.1 0.2 0.1 0.2 0.2 0.1 0.1 0.2 0.3 0.1-0.2 0.2-0.3 0.1-0.1 0.3-0.2 0.1-0.1 0.2-0.1 0.2-0.1 0.3-0.2 0.2 0 0.3-0.1 0.2 0 0.3-0.1 0.2 0 0.3 0 0.2 0 0.4 0 0.2 0 0.5 0 0.2 0.1 0.5 0.1 0.2 0.1 0.4 0.3 0.2 0.1 0.4 0.3z"/><path fill-rule="evenodd" class="b" d="m65.3 7.2h-4.6q0.1 0.1 0.1 0.2 0 0.1 0.1 0.1 0.1 0.1 0.1 0.2 0.1 0 0.2 0.1 0.1 0 0.2 0.1 0.1 0 0.2 0 0.1 0.1 0.2 0.1 0.1 0 0.2 0 0.1 0 0.2 0 0.1 0 0.2 0 0.1 0 0.2-0.1 0 0 0.1 0 0.1 0 0.2-0.1 0.1 0 0.2-0.1 0 0 0.1-0.1 0.1 0 0.2-0.1l1.4 1.4q-0.3 0.3-0.6 0.5-0.3 0.2-0.7 0.4-0.4 0.1-0.7 0.2-0.4 0-0.8 0-0.3 0-0.5 0-0.3 0-0.6-0.1-0.2-0.1-0.5-0.1-0.2-0.1-0.5-0.2-0.2-0.1-0.4-0.3-0.2-0.1-0.4-0.3-0.1-0.1-0.3-0.3-0.2-0.2-0.3-0.4-0.1-0.2-0.2-0.4-0.1-0.2-0.2-0.4 0-0.2-0.1-0.5 0-0.2 0-0.4 0-0.3 0-0.5 0.1-0.2 0.1-0.5 0.1-0.2 0.2-0.4 0.1-0.2 0.2-0.4 0.1-0.2 0.3-0.4 0.1-0.1 0.3-0.3 0.1-0.1 0.3-0.3 0.2-0.1 0.4-0.2 0.4-0.2 0.9-0.3 0.5-0.1 1-0.1 0.4 0 0.9 0.1 0.5 0.1 0.9 0.3 0.2 0.1 0.4 0.2 0.2 0.1 0.4 0.3 0.1 0.1 0.3 0.3 0.1 0.2 0.2 0.4 0.2 0.2 0.3 0.4 0 0.2 0.1 0.4 0.1 0.3 0.1 0.5 0 0.3 0 0.5c0 0.2 0 0.2 0 0.6zm-4.3-2q-0.1 0.1-0.1 0.2-0.1 0-0.1 0.1-0.1 0.1-0.1 0.2 0 0.1-0.1 0.2h2.1q0-0.1 0-0.2 0-0.1-0.1-0.2 0 0-0.1-0.1 0-0.1-0.1-0.2-0.1 0-0.2-0.1 0 0-0.1 0-0.1-0.1-0.2-0.1-0.1 0-0.2 0-0.1 0-0.2 0-0.1 0-0.2 0.1-0.1 0-0.1 0-0.1 0.1-0.2 0.1z"/></svg>